<?xml version="1.0" standalone="no"?>
<!DOCTYPE svg PUBLIC "-//W3C//DTD SVG 20010904//EN"
 "http://www.w3.org/TR/2001/REC-SVG-20010904/DTD/svg10.dtd">
<svg version="1.0" xmlns="http://www.w3.org/2000/svg"
 width="1365.000000pt" height="768.000000pt" viewBox="0 0 1365.000000 768.000000"
 preserveAspectRatio="xMidYMid meet">

<g transform="translate(0.000000,768.000000) scale(0.100000,-0.100000)"
fill="#000000" stroke="none">
<path d="M9275 5020 c-3 -5 -13 -6 -21 -3 -24 9 -34 -16 -34 -89 0 -38 -3 -68
-6 -68 -3 0 -17 14 -31 30 -55 66 -93 26 -93 -97 l0 -83 -39 0 c-67 0 -164
-37 -227 -85 -60 -47 -118 -119 -128 -160 -6 -23 -10 -24 -50 -19 -60 9 -86
-17 -86 -83 0 -54 41 -139 75 -157 27 -15 31 -22 50 -80 36 -108 120 -207 223
-260 18 -9 32 -21 32 -26 0 -5 -21 -24 -47 -41 -66 -46 -135 -51 -195 -16 -45
26 -108 103 -108 132 0 9 14 33 31 55 39 49 37 85 -5 85 -21 0 -31 6 -37 23
-9 25 -44 30 -53 7 -3 -8 -15 -15 -26 -15 -12 0 -24 -9 -29 -24 -5 -13 -16
-26 -23 -29 -9 -3 -14 -20 -14 -48 1 -39 4 -44 26 -47 106 -11 104 -10 148
-71 23 -31 60 -67 81 -79 52 -29 126 -29 186 0 24 12 47 19 50 17 3 -3 -7 -30
-21 -60 -31 -63 -96 -258 -114 -342 -16 -68 -5 -103 35 -113 34 -8 32 -27 -7
-60 -43 -36 -105 -64 -144 -64 -26 0 -34 6 -45 32 -31 75 -106 125 -123 82
-10 -27 29 -99 67 -123 35 -21 37 -21 102 -6 81 18 115 36 169 85 l41 37 144
4 145 4 33 -100 c38 -118 38 -122 13 -203 -30 -96 0 -135 54 -71 30 36 36 99
10 119 -8 8 -22 30 -30 49 -25 58 -64 215 -56 222 4 4 42 17 85 29 43 13 80
27 83 32 3 5 -17 43 -44 86 -27 42 -61 102 -75 132 -32 67 -83 237 -74 246 3
4 22 -7 40 -23 61 -53 121 -76 179 -69 28 4 68 16 88 26 37 19 38 19 56 -2 35
-38 94 -46 94 -12 0 8 12 20 26 26 19 9 24 17 20 34 -4 13 -2 25 3 29 13 7 11
106 -1 122 -8 10 -18 9 -46 -3 -35 -14 -38 -14 -54 5 -9 12 -25 21 -37 21 -25
0 -41 -51 -41 -136 0 -57 -2 -62 -27 -73 -16 -7 -53 -15 -84 -18 -44 -4 -64
-1 -100 17 -42 21 -99 67 -99 80 0 4 26 14 58 24 63 20 174 92 210 137 20 24
31 29 68 29 84 0 144 54 144 127 0 43 -16 65 -61 82 -23 8 -26 15 -27 58 -2
79 -40 168 -110 256 l-31 38 30 71 c48 116 38 140 -47 119 -26 -7 -49 -10 -52
-7 -2 3 9 21 26 40 45 52 60 107 41 159 -16 49 -50 62 -71 28 -18 -29 -27 -26
-39 9 -11 30 -41 41 -54 20z m46 -55 c6 -25 15 -45 20 -45 5 0 15 16 23 35 24
58 66 40 66 -27 0 -48 -20 -87 -72 -144 -39 -43 -68 -53 -96 -35 -24 15 -42
200 -22 231 8 13 11 12 23 -4 13 -18 14 -18 21 7 10 40 24 33 37 -18z m-137
-102 c30 -45 52 -123 42 -148 -5 -15 -14 -17 -53 -11 -26 3 -51 10 -56 15 -15
15 -21 135 -8 159 18 33 47 27 75 -15z m297 -115 c4 -43 -47 -158 -71 -158 -9
0 -35 16 -57 35 -32 27 -39 39 -36 59 7 32 22 45 75 61 55 17 88 18 89 3z
m-186 -53 c0 -21 -31 -33 -46 -18 -5 5 -7 17 -3 27 9 24 49 17 49 -9z m-135
-5 c30 -6 61 -16 69 -24 9 -8 31 -17 49 -21 17 -3 50 -22 73 -41 22 -19 49
-34 59 -34 25 0 74 -61 116 -145 59 -120 57 -230 -5 -210 -22 7 -62 70 -80
128 -7 20 -16 37 -19 37 -4 0 -15 -14 -24 -30 -29 -51 -49 -40 -109 63 -18 31
-38 57 -44 57 -5 0 -20 -18 -33 -40 -25 -44 -60 -59 -98 -41 -29 13 -64 67
-64 99 0 31 -8 28 -50 -18 -28 -31 -44 -40 -69 -40 -27 0 -32 4 -37 30 -8 38
-16 38 -47 -4 -14 -18 -43 -41 -63 -51 -37 -17 -38 -17 -56 5 -10 12 -18 29
-18 37 0 30 41 92 92 137 109 99 221 132 358 106z m-116 -248 c12 -37 64 -76
103 -76 30 0 42 7 69 39 18 22 34 37 36 35 2 -3 20 -31 41 -62 44 -68 66 -83
93 -63 30 22 40 18 60 -26 27 -61 52 -89 80 -89 35 0 31 -33 -13 -109 -54 -90
-121 -154 -206 -196 -254 -125 -519 -21 -613 240 -19 53 -26 222 -11 259 7 17
9 18 25 2 32 -28 80 -20 119 19 41 41 44 42 61 15 16 -27 52 -25 93 4 42 30
56 31 63 8z m-385 -16 c9 -11 10 -29 2 -72 -6 -32 -11 -75 -11 -96 0 -45 -11
-48 -39 -12 -40 51 -50 144 -20 181 15 17 53 17 68 -1z m991 -247 c17 -40 -5
-96 -49 -126 -31 -21 -80 -30 -93 -18 -5 5 64 151 82 172 15 18 47 4 60 -28z
m-1074 -134 c6 -34 7 -35 25 -19 26 24 42 9 25 -24 -31 -59 -52 -72 -116 -72
-46 0 -60 3 -60 14 0 8 5 18 11 22 8 4 8 9 0 17 -17 17 -13 30 8 24 16 -4 20
1 23 26 3 29 4 30 20 14 23 -23 28 -21 28 8 0 39 28 31 36 -10z m991 -125 l6
-30 32 20 c18 11 40 20 49 20 21 0 21 -28 -1 -52 -15 -17 -15 -18 0 -18 22 0
22 -26 0 -39 -15 -8 -16 -12 -5 -22 19 -20 14 -29 -14 -29 -21 0 -24 -4 -19
-20 15 -48 -54 -31 -80 20 -18 35 -20 151 -3 168 19 19 28 14 35 -18z m-433
-100 c4 -5 27 -64 51 -132 23 -67 54 -147 69 -177 32 -62 33 -60 -64 -93 -130
-42 -359 -33 -368 16 -5 21 48 183 86 266 17 36 37 81 45 100 l14 36 79 -4
c43 -2 83 -8 88 -12z m190 -422 c14 -24 22 -46 18 -50 -4 -4 -46 -19 -92 -33
-149 -45 -345 -57 -422 -26 -25 9 -28 16 -28 55 0 25 5 48 10 51 6 4 34 -1 62
-11 77 -25 218 -15 329 24 46 16 87 30 91 31 4 1 18 -18 32 -41z m-727 -194
c26 -45 29 -64 9 -64 -33 0 -93 87 -81 118 8 22 45 -6 72 -54z m681 -246 c2
-23 -3 -43 -16 -58 -24 -29 -46 -18 -37 19 19 83 47 104 53 39z"/>
<path d="M8874 4245 c-4 -8 -3 -22 0 -31 8 -21 50 -14 54 10 6 31 -43 50 -54
21z"/>
<path d="M9251 4171 c-18 -12 -9 -45 13 -49 17 -4 35 12 36 30 0 13 -36 27
-49 19z"/>
<path d="M8997 4102 c-13 -20 2 -70 26 -87 47 -33 108 -2 106 53 -1 27 -1 26
-10 -5 -12 -41 -43 -59 -75 -44 -22 10 -28 23 -36 76 -3 14 -6 16 -11 7z"/>
<path d="M10213 3876 c-101 -33 -155 -67 -234 -149 -73 -75 -135 -181 -159
-270 l-13 -49 -41 6 c-52 8 -101 -20 -122 -69 -35 -85 -5 -170 104 -290 l43
-48 -43 -36 c-85 -71 -108 -97 -122 -132 -19 -45 -5 -78 42 -99 30 -14 32 -18
27 -51 -7 -41 12 -69 46 -69 11 0 35 -16 53 -35 25 -26 42 -35 65 -35 47 0
108 35 137 80 22 33 29 38 45 29 11 -5 19 -14 19 -19 0 -14 -125 -177 -205
-268 -48 -54 -149 -122 -182 -122 -16 0 -27 8 -33 24 -17 45 -110 86 -164 72
-33 -8 -41 -38 -21 -77 16 -30 16 -32 -9 -58 -30 -31 -32 -44 -10 -62 10 -8
13 -21 9 -37 -7 -29 10 -52 38 -52 11 0 28 -6 36 -14 9 -7 46 -17 82 -20 93
-10 100 4 86 168 -1 20 4 32 18 40 83 46 125 79 183 145 37 42 74 87 83 101
33 49 29 11 -7 -71 -20 -46 -51 -127 -71 -179 -102 -281 -107 -337 -28 -359
17 -4 30 -14 29 -23 -2 -21 -95 -137 -136 -169 -39 -31 -92 -59 -110 -59 -7 0
-24 21 -38 47 -34 64 -64 98 -100 113 -58 24 -79 -29 -39 -100 23 -40 91 -90
124 -90 38 0 100 22 148 52 41 26 147 144 175 195 9 16 18 15 127 -6 65 -13
159 -26 209 -30 l91 -6 8 -65 c4 -36 14 -104 22 -151 8 -48 15 -92 15 -98 0
-7 -21 -11 -52 -11 -64 0 -112 -26 -122 -65 -10 -41 8 -55 73 -55 69 0 156 37
166 71 5 15 2 25 -8 31 -27 15 -56 127 -72 285 l-7 62 44 5 c23 3 73 8 110 11
42 4 76 13 89 24 l22 17 -27 130 c-15 71 -45 195 -67 275 -21 81 -39 152 -39
158 0 22 18 10 39 -25 23 -39 180 -232 205 -253 22 -18 20 -39 -9 -93 -14 -26
-25 -57 -25 -68 0 -32 18 -60 40 -60 10 0 22 -4 25 -10 8 -14 48 -13 62 1 9 9
19 9 42 -1 45 -18 61 -8 61 40 0 40 1 41 28 35 44 -9 60 16 39 59 -15 32 -15
35 10 70 26 35 26 36 7 57 -17 19 -26 21 -77 15 -33 -3 -79 -15 -104 -26 -25
-11 -51 -20 -58 -20 -30 0 -218 243 -277 358 -43 84 -46 102 -18 102 19 0 27
-18 45 -106 7 -36 37 -68 78 -83 45 -17 58 -13 98 31 l39 41 26 -26 c15 -15
32 -27 39 -27 16 0 37 26 58 73 17 37 17 38 46 22 43 -22 104 -19 126 5 25 28
15 74 -35 157 -22 37 -39 74 -38 82 2 9 17 18 33 21 49 11 92 38 121 76 58 76
21 204 -64 220 l-35 7 6 65 c11 139 -28 292 -109 428 -92 156 -217 244 -427
300 -81 21 -199 17 -284 -10z m349 -37 c118 -38 156 -61 248 -151 62 -60 83
-90 121 -168 63 -129 74 -175 74 -308 0 -125 -5 -136 -58 -121 -39 11 -44 20
-52 89 -4 31 -16 74 -28 95 -28 49 -101 96 -162 102 -49 6 -59 21 -53 78 3 26
-1 29 -46 41 -68 18 -105 57 -122 130 -7 33 -14 77 -14 99 0 46 -12 71 -29 60
-7 -3 -25 -35 -42 -70 -50 -107 -145 -196 -234 -220 -16 -5 -73 -9 -125 -9
-85 -1 -100 -4 -141 -28 -26 -15 -49 -25 -52 -22 -10 10 33 115 71 174 53 83
148 172 222 208 137 67 262 74 422 21z m-104 -213 c26 -88 56 -128 117 -153
38 -15 45 -22 45 -45 0 -16 1 -31 1 -35 1 -5 -24 -21 -56 -37 -51 -26 -124
-99 -137 -137 -3 -9 -21 -7 -69 5 -36 9 -72 16 -81 16 -11 0 -17 15 -21 60 -8
70 -27 113 -62 136 -14 9 -25 19 -25 23 0 3 23 17 50 30 70 33 136 94 172 158
16 29 33 53 37 53 4 0 17 -33 29 -74z m-423 -177 c9 -14 -24 -49 -62 -65 -43
-18 -113 -18 -113 -1 0 42 154 100 175 66z m142 -35 c48 -37 55 -57 51 -143
-5 -95 -35 -161 -91 -202 -48 -35 -108 -53 -147 -44 -45 10 -117 61 -145 103
-36 54 -53 140 -36 181 13 29 17 31 65 31 79 0 124 17 175 66 52 50 72 51 128
8z m-397 -39 c10 -12 10 -28 1 -73 -9 -47 -8 -67 4 -108 16 -52 20 -144 7
-144 -12 0 -54 47 -90 101 -39 58 -56 127 -41 166 24 64 88 95 119 58z m880
-85 c34 -68 99 -137 165 -175 65 -39 62 -63 -18 -140 -65 -64 -90 -75 -173
-75 -83 0 -132 33 -170 115 -34 71 -32 139 5 213 19 38 43 67 68 84 76 52 87
50 123 -22z m118 29 c38 -21 58 -41 68 -65 19 -44 30 -124 17 -124 -44 0 -173
132 -188 193 -7 25 -5 27 21 27 16 0 53 -14 82 -31z m-416 -124 l45 -16 6 -69
c10 -118 63 -194 158 -225 120 -40 256 25 317 152 14 30 19 33 47 27 48 -10
51 -19 24 -76 -74 -159 -267 -305 -476 -359 -87 -22 -211 -26 -288 -9 -125 28
-231 119 -304 259 -38 74 -71 185 -58 197 4 4 22 -7 42 -24 72 -64 180 -68
268 -10 45 30 57 45 81 102 26 62 30 66 60 66 18 0 53 -7 78 -15z m743 -161
c9 -14 18 -46 21 -72 7 -61 -20 -106 -79 -132 -46 -21 -157 -28 -157 -9 0 5
19 38 43 72 24 34 51 84 61 110 26 69 77 83 111 31z m-1251 -139 c22 -47 61
-110 88 -142 26 -31 48 -67 48 -79 0 -44 -97 -112 -144 -100 -12 3 -29 19 -39
36 -14 23 -25 30 -48 30 -37 0 -46 21 -30 67 15 40 13 43 -31 50 -85 13 -80
56 16 150 41 40 80 73 88 73 7 -1 31 -39 52 -85z m1069 -122 c5 -3 30 -37 55
-77 37 -57 46 -80 47 -116 0 -43 -1 -45 -32 -48 -21 -2 -48 6 -77 23 -48 28
-51 27 -61 -27 -4 -20 -15 -44 -26 -54 -17 -15 -20 -15 -49 10 -18 14 -35 26
-40 26 -5 0 -21 -18 -37 -40 -42 -60 -98 -54 -135 13 -17 33 -38 121 -30 128
4 4 45 23 91 44 47 21 114 60 150 87 58 43 70 48 101 42 19 -3 39 -8 43 -11z
m-784 -164 c18 -6 38 -24 46 -40 33 -62 100 -70 142 -16 21 27 79 43 101 29 7
-5 15 -25 19 -46 5 -31 2 -41 -22 -66 -19 -19 -29 -43 -32 -74 -5 -39 -2 -48
21 -69 14 -13 40 -28 58 -33 28 -8 36 -17 49 -59 9 -28 20 -69 24 -92 6 -40 5
-43 -15 -43 -30 0 -80 -53 -80 -85 0 -43 50 -85 99 -85 36 0 43 -4 52 -27 7
-20 6 -30 -4 -40 -16 -17 -117 -33 -207 -33 -64 0 -66 1 -77 30 -12 32 -66 70
-101 70 -12 0 -42 -18 -66 -40 -24 -22 -52 -40 -62 -40 -23 0 -202 36 -227 45
-19 8 -30 41 -25 76 2 20 8 24 36 21 40 -3 86 20 108 54 25 37 4 102 -37 117
-37 14 -37 31 5 132 l32 80 47 -3 c59 -5 91 14 107 62 9 29 8 40 -6 67 -9 18
-25 40 -36 49 -17 14 -18 19 -7 43 14 31 15 31 58 16z m161 -45 c0 -21 -49
-29 -67 -11 -8 8 -13 19 -10 24 9 14 77 3 77 -13z m-206 -56 c35 -49 2 -118
-56 -118 -46 0 -50 41 -8 108 23 38 43 41 64 10z m385 -92 c23 -94 10 -117
-44 -74 -23 18 -26 26 -22 55 12 73 49 84 66 19z m-915 -106 c68 -33 122 -164
102 -244 -8 -32 -39 -35 -59 -6 -13 18 -16 19 -27 5 -21 -25 -43 -19 -36 9 7
28 -10 44 -27 27 -13 -13 -47 -15 -47 -3 0 5 9 17 20 27 27 24 25 35 -4 35
-14 0 -28 5 -31 11 -8 12 23 49 42 49 20 0 16 23 -7 38 -19 12 -27 51 -13 65
12 12 46 7 87 -13z m1443 -155 c8 -22 -23 -52 -65 -63 -31 -8 -34 -10 -17 -16
34 -12 48 -22 59 -39 16 -25 0 -31 -44 -17 -22 7 -42 11 -45 8 -3 -3 2 -21 10
-41 8 -20 15 -41 15 -47 0 -17 -22 -11 -48 13 -15 13 -26 18 -29 11 -2 -6 -10
-20 -18 -30 -15 -19 -15 -19 -30 0 -8 11 -15 28 -15 38 0 10 -4 18 -10 18 -5
0 -10 -7 -10 -15 0 -8 -7 -15 -15 -15 -22 0 -18 29 13 85 33 61 92 103 158
114 74 13 84 12 91 -4z m-1058 -32 c35 -43 0 -103 -59 -103 -35 0 -41 15 -23
64 25 72 48 83 82 39z m610 -67 c20 -23 26 -87 10 -97 -20 -12 -61 0 -82 23
-18 21 -16 49 5 76 14 16 53 15 67 -2z m-290 -182 c12 -15 21 -30 21 -34 0
-12 -31 -16 -87 -12 -58 4 -68 19 -36 54 25 28 77 24 102 -8z m-725 -155 c36
-39 61 -87 52 -97 -9 -8 -63 18 -84 41 -24 26 -45 75 -36 88 11 18 32 8 68
-32z m861 -299 c0 -20 -44 -40 -105 -47 -41 -5 -51 -3 -56 11 -10 25 23 54 65
58 53 4 96 -6 96 -22z"/>
<path d="M10022 3288 c-25 -25 -10 -78 22 -78 30 0 46 18 46 51 0 36 -42 53
-68 27z"/>
<path d="M10575 3160 c-24 -26 -13 -68 20 -76 49 -12 75 45 37 79 -24 22 -35
21 -57 -3z"/>
<path d="M10176 2971 c-4 -6 -2 -37 5 -69 22 -102 46 -132 108 -132 68 0 105
33 122 110 13 56 0 76 -53 83 -118 16 -176 19 -182 8z m192 -42 c41 -16 15
-107 -38 -129 -39 -16 -98 3 -105 33 -18 79 -22 107 -17 112 7 7 130 -5 160
-16z"/>
<path d="M10159 2261 c-54 -54 -33 -130 41 -152 33 -10 43 -9 65 5 52 34 57
117 8 156 -37 29 -79 26 -114 -9z m101 -11 c22 -22 26 -70 10 -101 -7 -13 -21
-19 -43 -19 -43 0 -65 17 -73 57 -5 26 -1 37 19 57 31 31 60 33 87 6z"/>
<path d="M8200 3103 c-41 -14 -91 -59 -109 -99 -17 -35 -26 -44 -46 -44 -31 0
-93 -25 -117 -47 -29 -26 -33 -78 -10 -114 18 -29 19 -36 6 -70 -9 -29 -10
-47 -3 -68 7 -21 7 -36 -1 -50 -13 -26 -20 -26 -59 -3 -37 21 -58 11 -83 -39
-32 -65 -18 -156 32 -204 28 -27 30 -34 30 -99 0 -164 74 -298 212 -383 75
-46 65 -66 -18 -34 -78 29 -155 89 -244 188 -110 123 -109 119 -76 192 35 80
33 125 -7 129 -17 2 -37 -4 -47 -13 -18 -16 -21 -16 -49 4 -44 31 -61 28 -61
-13 0 -28 -5 -38 -27 -48 -23 -11 -28 -20 -26 -45 2 -18 -2 -35 -7 -38 -20
-12 -9 -36 24 -52 19 -9 37 -24 39 -34 7 -27 47 -24 90 6 l37 24 32 -47 c85
-125 242 -251 350 -284 46 -14 46 -6 14 -215 -35 -230 -40 -278 -26 -299 10
-16 5 -33 -29 -102 -22 -46 -37 -89 -35 -97 3 -7 16 -16 30 -19 18 -5 24 -13
24 -35 0 -34 -48 -91 -78 -91 -32 0 -85 42 -119 95 -61 94 -57 91 -89 80 -33
-11 -84 -100 -84 -145 0 -31 28 -60 57 -60 20 0 64 43 89 86 11 18 14 16 57
-23 79 -73 134 -67 171 20 18 42 23 47 52 47 35 0 55 21 87 92 10 20 21 39 25
41 4 2 45 -2 92 -9 47 -7 102 -13 123 -14 35 0 39 -3 57 -44 21 -50 48 -69 85
-60 21 5 26 2 35 -22 19 -51 51 -108 68 -121 34 -25 78 -16 123 27 23 22 43
40 45 40 1 0 8 -17 14 -37 33 -101 100 -97 100 6 0 31 -7 49 -31 76 -42 48
-62 45 -94 -12 -27 -49 -86 -103 -113 -103 -25 0 -71 60 -87 113 -14 48 -14
53 1 64 9 7 21 14 25 15 5 2 -12 46 -37 98 -33 68 -44 102 -40 122 7 36 -46
312 -90 466 -8 26 -3 27 56 6 59 -21 172 -20 246 1 33 9 95 36 140 59 l81 43
37 -19 c51 -26 100 -21 104 11 2 13 13 32 25 42 21 17 22 17 3 38 -18 20 -18
22 -3 39 24 26 21 51 -8 64 -13 6 -27 19 -30 30 -7 20 -45 24 -63 6 -9 -9 -16
-8 -30 5 -60 54 -100 -31 -66 -139 l18 -57 -29 -23 c-30 -23 -158 -75 -235
-95 -64 -16 -200 3 -200 28 0 5 27 25 60 46 33 21 79 60 102 88 36 41 49 49
78 49 19 0 54 9 77 19 61 28 94 101 58 131 -13 11 -10 18 25 50 44 40 50 67
25 114 -21 40 -19 50 15 63 37 14 40 49 9 100 -21 34 -21 35 -4 74 17 37 17
42 2 74 -9 18 -30 44 -46 56 -24 17 -28 26 -21 40 19 34 10 62 -30 100 -21 20
-55 43 -73 50 -27 10 -37 21 -46 50 -18 58 -61 84 -141 84 -59 0 -67 2 -91 29
-25 28 -32 30 -95 30 -39 0 -83 -6 -101 -14 -30 -13 -34 -13 -55 7 -26 24 -56
34 -78 26z m-150 -508 c0 -39 27 -84 55 -91 24 -6 45 -4 92 11 18 6 22 2 28
-24 10 -45 45 -65 100 -58 39 6 45 4 45 -12 0 -36 34 -64 86 -70 46 -6 49 -8
55 -41 8 -51 24 -76 59 -90 22 -9 37 -10 53 -2 18 8 27 5 54 -20 32 -31 61
-38 101 -24 34 11 28 -5 -41 -106 -73 -108 -150 -175 -240 -210 -50 -18 -81
-23 -157 -22 -211 1 -367 90 -443 252 -28 59 -32 80 -35 170 -5 125 9 206 50
289 31 61 32 62 77 66 25 2 49 4 54 5 4 1 7 -9 7 -23z m-195 -9 c19 -13 19
-16 0 -110 -11 -55 -23 -95 -30 -93 -37 12 -53 143 -22 190 20 31 26 32 52 13z
m-233 -283 c32 -31 38 -34 38 -18 1 27 23 55 44 55 25 0 19 -37 -19 -115 -23
-46 -46 -77 -65 -89 -34 -20 -50 -15 -43 13 4 16 -1 20 -28 23 -38 4 -49 23
-17 31 21 6 21 7 5 25 -29 31 -22 45 19 39 33 -6 36 -4 31 16 -2 12 -8 30 -12
40 -11 27 6 20 47 -20z m1253 -145 c29 -13 30 -17 13 -53 -13 -29 -74 -65
-108 -65 -25 0 -26 -3 18 73 37 62 38 63 77 45z m160 -74 c18 -38 21 -38 39
-2 6 12 17 24 25 26 11 4 13 -3 8 -28 -7 -32 -6 -32 23 -26 36 7 42 -17 10
-34 -26 -14 -25 -34 3 -47 l22 -11 -28 -11 c-23 -9 -26 -15 -21 -36 5 -21 3
-25 -15 -25 -69 0 -140 129 -112 203 14 36 25 34 46 -9z m-810 -265 c28 -6 92
-11 143 -11 87 1 94 -1 101 -21 17 -45 -2 -50 -154 -44 -135 5 -195 16 -195
36 0 5 5 22 10 36 7 19 15 25 28 21 9 -3 40 -10 67 -17z m108 -96 l157 -6 0
-28 c0 -23 -6 -30 -26 -35 -32 -8 -312 1 -336 11 -13 5 -18 18 -18 42 0 34 1
35 33 29 17 -4 103 -9 190 -13z m-15 -88 c96 -2 177 -6 182 -11 4 -5 11 -23
15 -41 7 -37 11 -35 -118 -53 -80 -12 -173 -6 -255 14 -52 13 -61 31 -42 80 8
22 14 26 28 20 9 -4 95 -8 190 -9z m-108 -120 c92 -14 117 -14 205 -1 55 8
104 11 108 6 12 -11 29 -89 22 -100 -11 -17 -80 -30 -160 -30 -95 0 -294 25
-308 39 -13 13 1 101 16 101 6 0 59 -7 117 -15z m39 -136 c89 -10 167 -9 281
3 19 2 26 -2 28 -18 8 -56 -88 -80 -286 -71 -181 9 -206 15 -210 51 -6 48 4
59 46 53 20 -3 84 -11 141 -18z m116 -105 c72 3 144 8 161 12 30 6 31 4 63
-68 18 -40 35 -78 38 -85 3 -7 -14 -22 -41 -35 -43 -21 -46 -21 -65 -4 -10 10
-22 29 -26 44 -11 43 -24 52 -79 52 -28 0 -86 7 -129 15 -43 8 -82 15 -86 15
-4 0 -22 -31 -41 -70 -37 -76 -43 -79 -111 -58 -48 14 -49 28 -8 111 45 88 39
85 121 74 40 -5 132 -6 203 -3z m-577 -166 c18 -18 14 -79 -8 -115 -19 -32
-59 -51 -79 -38 -25 15 -2 113 34 149 19 19 37 20 53 4z m1121 -92 c17 -18 22
-33 19 -67 -4 -60 -30 -64 -52 -9 -20 49 -21 100 -3 100 8 0 24 -11 36 -24z"/>
<path d="M8021 2376 c-7 -8 -11 -27 -9 -43 3 -24 8 -28 33 -28 23 0 32 6 39
27 16 46 -33 80 -63 44z"/>
<path d="M8487 2219 c-21 -12 -22 -52 -3 -68 21 -18 56 3 56 34 0 29 -28 47
-53 34z"/>
<path d="M8110 2141 c0 -84 16 -123 63 -151 72 -44 135 -17 179 76 16 35 28
71 25 79 -8 18 -126 55 -204 62 l-63 6 0 -72z m169 22 c83 -21 85 -25 52 -92
-28 -54 -60 -81 -97 -81 -28 0 -74 30 -89 60 -15 30 -21 121 -8 134 8 8 62 0
142 -21z"/>
</g>
</svg>
