<?xml version="1.0" standalone="no"?>
<!DOCTYPE svg PUBLIC "-//W3C//DTD SVG 20010904//EN"
 "http://www.w3.org/TR/2001/REC-SVG-20010904/DTD/svg10.dtd">
<svg version="1.0" xmlns="http://www.w3.org/2000/svg"
 width="1024.000000pt" height="1024.000000pt" viewBox="0 0 1024.000000 1024.000000"
 preserveAspectRatio="xMidYMid meet">

<g transform="translate(0.000000,1024.000000) scale(0.100000,-0.100000)"
fill="#000000" stroke="none">
<path d="M5590 9949 c0 -16 -183 -194 -229 -223 -53 -34 -174 -55 -204 -36
-78 48 -135 70 -182 70 -28 0 -55 -4 -61 -9 -18 -18 -294 -53 -359 -46 -50 5
-72 2 -120 -16 l-59 -22 -18 24 c-32 40 -44 53 -79 85 -19 16 -42 40 -51 52
-9 11 -36 26 -60 33 -24 6 -56 18 -71 26 -16 8 -31 13 -33 10 -7 -7 53 -127
75 -151 30 -32 63 -113 56 -137 -10 -29 -73 -97 -107 -115 -15 -8 -28 -20 -28
-27 0 -7 -16 -29 -36 -48 -31 -30 -41 -34 -84 -33 -27 0 -59 8 -74 17 -14 9
-32 17 -40 17 -26 0 -46 42 -46 98 0 38 -4 54 -15 59 -9 3 -18 4 -20 2 -2 -2
-5 -44 -7 -94 l-3 -90 29 -3 c16 -2 44 -15 61 -28 18 -13 44 -24 58 -24 19 0
25 -4 21 -15 -4 -8 -12 -15 -18 -15 -7 0 -19 -25 -26 -55 -7 -31 -17 -58 -22
-61 -5 -3 -5 -11 0 -17 5 -7 19 -42 31 -79 12 -37 35 -85 52 -107 16 -23 25
-41 19 -41 -14 0 -12 -11 6 -35 12 -16 17 -17 23 -7 6 11 17 8 49 -15 44 -30
52 -46 41 -79 -6 -17 -3 -23 12 -27 12 -3 19 -14 19 -30 0 -13 11 -39 24 -58
14 -19 33 -50 43 -69 9 -19 45 -63 79 -98 33 -35 58 -64 55 -66 -3 -2 -22 -7
-41 -11 -52 -11 -87 -32 -93 -55 -3 -11 -11 -20 -17 -20 -7 0 -10 6 -7 14 4 9
-3 16 -21 19 -15 3 -41 11 -59 18 -26 10 -38 10 -72 -1 -23 -7 -46 -19 -52
-27 -6 -7 -18 -13 -26 -13 -8 0 -26 -9 -40 -20 l-26 -20 26 0 c44 0 40 -17
-20 -84 -59 -64 -74 -73 -258 -150 -27 -12 -80 -38 -117 -59 -36 -20 -73 -37
-81 -37 -27 0 -67 -40 -67 -68 0 -56 38 -75 155 -82 l90 -5 -54 -13 c-29 -7
-87 -28 -127 -47 -46 -22 -83 -33 -97 -30 -12 3 -33 -1 -47 -10 -14 -8 -43
-23 -65 -33 -92 -44 -172 -153 -194 -266 -5 -23 -12 -48 -15 -57 -5 -12 0 -18
25 -23 17 -3 42 -6 54 -6 18 0 28 -12 46 -52 13 -29 25 -56 27 -59 1 -3 -18
-37 -44 -75 -26 -38 -49 -76 -52 -84 -3 -8 -26 -46 -52 -85 -26 -38 -70 -113
-98 -167 -44 -83 -49 -98 -37 -108 12 -10 25 -10 63 0 101 28 185 87 266 188
24 32 70 84 101 117 45 47 52 53 36 25 -45 -77 -89 -169 -115 -237 -15 -40
-32 -73 -37 -73 -5 0 -9 23 -9 52 0 49 -1 51 -19 34 -10 -9 -31 -45 -47 -79
-24 -52 -28 -74 -28 -142 1 -44 5 -108 9 -142 6 -53 4 -68 -15 -109 -23 -46
-23 -47 -4 -61 10 -8 29 -16 42 -20 27 -6 27 -6 3 -68 -24 -63 -36 -190 -23
-238 7 -26 7 -39 -1 -45 -18 -15 -116 -41 -193 -51 -126 -18 -326 -104 -442
-190 -28 -21 -121 -123 -277 -306 -45 -53 -137 -175 -207 -275 -18 -25 -50
-68 -72 -96 -23 -28 -50 -63 -61 -78 -11 -15 -76 -103 -145 -196 -69 -92 -143
-193 -165 -225 -22 -31 -52 -73 -68 -93 -15 -19 -63 -93 -107 -162 -44 -70
-87 -133 -95 -140 -8 -7 -15 -21 -15 -31 0 -10 -4 -21 -10 -24 -20 -13 -9 -55
41 -151 28 -55 56 -102 61 -105 12 -8 2 -62 -20 -104 -8 -16 -21 -52 -28 -80
-7 -27 -24 -88 -38 -135 -65 -222 -79 -432 -41 -616 32 -154 151 -422 239
-539 65 -87 62 -85 94 -76 16 5 62 12 103 16 180 18 422 91 644 195 58 27 109
50 111 50 3 0 17 8 32 19 15 10 61 38 102 61 41 24 109 64 150 90 41 26 89 54
107 63 l31 16 12 -87 c19 -139 48 -188 124 -214 21 -7 36 -17 34 -23 -1 -5 -7
-8 -13 -5 -5 2 -37 4 -70 4 -69 0 -122 -24 -172 -76 -47 -50 -64 -101 -70
-213 -6 -111 1 -135 59 -205 46 -56 48 -59 48 -69 0 -12 -89 -42 -127 -43 -30
-1 -141 30 -238 67 -33 13 -89 33 -125 46 -125 43 -230 98 -324 168 -53 39
-98 71 -101 71 -3 0 -5 -7 -5 -15 0 -8 3 -15 8 -15 4 0 24 -16 45 -35 98 -90
235 -167 397 -224 36 -13 83 -31 105 -41 54 -23 161 -57 210 -65 22 -4 92 -21
155 -37 63 -16 159 -33 213 -38 93 -9 137 -21 137 -38 0 -17 82 -90 130 -116
102 -56 254 -40 324 33 l28 29 42 -18 c185 -79 405 -38 527 99 61 68 86 120
95 191 5 47 3 59 -16 83 -40 51 -100 31 -170 -57 -24 -30 -47 -53 -52 -50 -4
3 -5 58 -1 122 5 95 3 128 -12 177 -22 76 -79 172 -117 195 l-29 18 43 6 c63
10 119 45 153 97 17 25 42 60 57 78 15 17 30 47 34 65 4 24 13 36 27 40 28 7
131 108 177 171 73 101 152 175 240 223 107 58 152 70 325 83 104 8 165 7 238
-1 l98 -12 -8 -102 c-13 -162 -8 -249 16 -301 11 -25 21 -49 21 -54 0 -13 127
-138 161 -158 16 -10 29 -20 29 -24 0 -12 -74 -53 -115 -64 -34 -10 -40 -15
-40 -39 -1 -16 -9 -34 -18 -41 -23 -16 -22 -41 3 -72 11 -14 20 -39 20 -55 0
-16 7 -42 15 -58 13 -25 22 -30 50 -30 30 0 35 -3 35 -24 0 -13 6 -46 14 -72
8 -27 21 -125 29 -219 8 -93 16 -177 18 -185 3 -10 -13 -21 -56 -35 -33 -11
-65 -23 -71 -27 -40 -25 -262 -56 -464 -63 -69 -3 -197 -12 -285 -21 -148 -15
-171 -15 -305 0 -80 9 -183 26 -231 38 -81 21 -119 20 -119 -1 0 -18 32 -29
120 -41 177 -26 273 -28 740 -18 301 7 405 21 569 74 79 26 106 30 96 14 -12
-19 14 -10 28 10 12 17 19 19 41 10 15 -5 59 -10 97 -10 86 0 150 29 220 101
l47 49 57 -11 c49 -9 62 -8 96 9 21 11 36 15 33 11 -3 -5 3 -9 13 -9 10 0 26
-13 36 -29 27 -46 93 -99 139 -112 58 -15 154 -6 205 20 23 11 59 38 80 59 24
25 59 46 93 57 66 22 160 110 179 168 18 54 35 47 28 -11 l-6 -48 95 -2 c117
-4 217 14 405 73 163 52 413 156 461 192 18 14 42 28 53 33 44 18 104 70 99
85 -9 23 -22 18 -77 -30 -29 -25 -56 -45 -61 -45 -5 0 -48 -20 -95 -44 -106
-54 -230 -103 -381 -149 -143 -45 -327 -87 -375 -87 l-37 0 54 44 c30 24 66
59 80 77 14 19 40 49 56 68 60 65 106 190 105 281 -3 201 -152 350 -350 350
-63 0 -104 -12 -203 -59 -36 -17 -71 -31 -77 -31 -9 0 -13 16 -13 49 0 45 2
49 28 54 51 10 79 43 115 136 l35 89 -14 78 c-8 43 -12 80 -9 82 2 2 28 -16
57 -40 29 -25 73 -58 98 -73 25 -15 63 -44 86 -64 126 -113 500 -341 667 -408
34 -13 76 -30 92 -38 48 -21 234 -84 310 -105 39 -10 131 -25 204 -31 l134
-13 26 31 c44 53 122 190 178 314 52 116 74 205 104 414 19 137 -20 415 -86
604 -41 120 -69 203 -100 300 l-13 43 27 -26 c38 -36 55 -33 85 18 40 69 37
81 -64 261 -25 45 -130 199 -199 292 -25 34 -91 123 -146 198 -55 76 -139 187
-187 249 -48 61 -103 131 -123 156 -19 25 -62 82 -96 128 -33 45 -64 82 -69
82 -5 0 -17 14 -26 31 -9 18 -44 63 -78 100 -33 38 -79 90 -101 116 -61 71
-188 160 -311 219 -101 48 -177 74 -344 116 -45 11 -55 17 -52 33 8 57 2 168
-11 230 -9 39 -21 107 -26 152 -6 45 -13 94 -16 110 -6 24 -5 26 7 11 7 -9 20
-26 28 -38 8 -13 23 -31 33 -40 21 -21 70 -33 75 -19 2 5 12 9 22 9 10 0 21 4
25 9 3 5 17 -1 32 -15 40 -37 48 -15 19 56 -14 35 -26 79 -26 97 0 49 -15 70
-65 94 -24 12 -44 24 -43 27 4 32 -6 64 -27 86 -16 17 -24 35 -20 45 3 10 -2
35 -11 57 -9 21 -23 69 -31 106 -18 87 -48 155 -73 163 -22 7 -26 20 -10 30
11 7 -30 84 -62 120 -16 17 -16 20 -3 28 8 4 15 17 15 27 0 24 34 60 55 60 24
0 18 12 -36 80 -60 74 -96 111 -162 164 -26 21 -46 41 -44 43 2 2 45 -12 94
-31 145 -55 238 -61 231 -13 -4 31 -100 78 -293 142 -284 95 -349 132 -401
228 l-15 27 125 0 c78 0 127 4 131 11 4 6 -3 21 -15 34 -24 26 -295 165 -321
165 -9 0 -33 7 -52 15 -20 8 -54 15 -76 15 -22 0 -51 4 -65 10 -22 8 -26 16
-26 49 0 68 -15 85 -109 129 -47 23 -104 44 -126 47 -82 13 -82 13 -42 54 111
112 147 174 147 252 0 20 16 43 56 86 56 58 65 69 137 177 36 54 49 95 26 80
-6 -3 -4 8 5 24 9 17 16 36 16 42 0 17 -36 11 -64 -11 -44 -34 -42 -14 3 37
75 85 151 277 151 380 0 30 -3 54 -7 54 -5 0 -21 -41 -38 -91 -23 -69 -38 -98
-63 -120 -42 -37 -81 -47 -97 -25 -17 23 -34 20 -41 -8 -9 -36 -32 -41 -46 -8
-16 36 -65 108 -105 155 -43 48 -42 80 2 171 19 39 35 80 36 91 4 50 -2 105
-11 105 -5 0 -10 -5 -10 -11z m-232 -1454 c157 -11 279 -107 270 -213 l-3 -37
-125 -5 c-120 -5 -126 -4 -151 18 -14 12 -60 36 -103 52 -97 37 -195 41 -256
10 -22 -11 -47 -20 -56 -20 -28 0 20 63 54 72 32 9 46 22 72 71 22 42 93 68
170 62 30 -3 88 -7 128 -10z m-800 -2 c-10 -2 -26 -2 -35 0 -10 3 -2 5 17 5
19 0 27 -2 18 -5z m91 -50 c24 -29 31 -47 31 -81 0 -38 -2 -43 -17 -36 -10 4
-44 10 -75 12 -60 4 -63 7 -59 55 1 9 -3 17 -8 17 -6 0 -11 -9 -11 -20 0 -30
-82 -46 -88 -17 -11 56 16 81 108 97 79 14 87 12 119 -27z m-273 6 c4 -8 9 -8
17 0 25 25 37 11 17 -21 -11 -18 -20 -43 -20 -54 0 -26 -15 -40 -55 -50 -17
-4 -34 -13 -40 -20 -11 -13 -164 -64 -195 -64 -46 0 -68 71 -31 104 11 10 30
17 43 16 38 -3 43 -1 60 28 10 16 23 29 30 29 53 4 141 17 130 21 -6 2 -10 8
-6 13 7 13 41 11 50 -2z m-349 -35 c-3 -3 -12 -4 -19 -1 -8 3 -5 6 6 6 11 1
17 -2 13 -5z m808 -179 c13 -4 12 -9 -4 -37 -23 -37 -61 -49 -61 -19 0 11 -4
23 -10 26 -18 11 -10 34 13 37 22 4 32 3 62 -7z m-1543 -724 c-39 -39 -90
-103 -113 -143 -23 -40 -44 -68 -46 -63 -1 6 -9 33 -17 60 -8 28 -17 59 -21
70 -10 32 61 82 168 120 51 17 94 30 96 29 1 -1 -29 -34 -67 -73z m3357 -278
c10 -19 9 -23 -4 -23 -10 0 -15 9 -15 27 0 29 2 29 19 -4z m149 -522 c31 -27
27 -33 -8 -13 -16 9 -30 20 -30 25 0 12 14 7 38 -12z m-10 -40 c3 -8 -1 -12
-9 -9 -7 2 -15 10 -17 17 -3 8 1 12 9 9 7 -2 15 -10 17 -17z m-3148 -215 c0
-2 -7 -7 -16 -10 -8 -3 -12 -2 -9 4 6 10 25 14 25 6z m2953 -614 c9 -10 13
-23 8 -30 -6 -10 -11 -9 -22 4 -12 16 -12 17 1 10 9 -4 8 -1 -2 7 -10 8 -18
17 -18 21 0 12 17 6 33 -12z m-2888 -672 c-3 -5 -12 -10 -18 -10 -7 0 -6 4 3
10 19 12 23 12 15 0z m-175 -300 c8 -5 11 -10 5 -10 -5 0 -17 5 -25 10 -8 5
-10 10 -5 10 6 0 17 -5 25 -10z m1073 -115 c103 -14 227 -25 275 -25 117 0
408 19 455 29 20 5 37 6 37 1 0 -14 -39 -42 -49 -36 -12 8 -131 -15 -131 -24
0 -10 79 -1 102 11 37 20 29 2 -19 -44 -97 -93 -136 -117 -224 -138 -136 -34
-363 -15 -476 38 -29 14 -58 34 -64 45 -6 11 -33 44 -60 74 -27 30 -49 59 -49
66 0 6 -8 17 -17 25 -17 13 -16 14 7 9 14 -3 109 -17 213 -31z m-1192 -1130
c6 -5 8 -20 4 -41 -8 -43 12 -45 62 -7 32 25 37 26 66 14 18 -8 61 -17 97 -21
97 -12 140 -30 159 -70 11 -22 34 -42 71 -62 30 -16 68 -43 83 -60 l29 -31
-24 -18 -23 -19 26 0 c38 0 41 -10 16 -44 -21 -28 -26 -66 -9 -66 4 0 15 14
24 30 17 30 33 36 55 22 9 -6 9 -17 -1 -47 -8 -22 -16 -55 -18 -74 -3 -34 -2
-35 42 -46 57 -14 60 -30 20 -101 -31 -53 -31 -56 -15 -75 10 -10 24 -19 31
-19 15 0 74 -73 74 -91 -1 -10 -5 -9 -14 4 -13 16 -15 15 -35 -18 -29 -49 -37
-85 -20 -85 9 -1 5 -8 -10 -20 -14 -12 -21 -26 -17 -35 7 -19 -62 -123 -105
-160 -17 -13 -55 -32 -85 -41 -50 -14 -58 -14 -104 1 -27 9 -52 21 -55 25 -3
5 2 35 11 67 12 42 15 74 10 122 -4 36 -8 89 -9 116 -2 50 -2 50 34 59 62 15
78 97 40 196 -30 75 -50 90 -121 90 -71 0 -116 -27 -147 -90 -31 -60 -30 -120
1 -157 23 -27 90 -53 137 -53 20 0 21 -4 15 -42 -4 -23 -8 -43 -9 -44 -1 -1
-111 -4 -244 -7 -133 -3 -247 -8 -254 -12 -23 -15 -2 -142 36 -220 42 -85 43
-94 8 -88 -57 9 -249 76 -263 92 -8 9 -23 15 -32 13 -33 -7 -79 28 -100 76
-33 73 -38 280 -9 389 20 78 32 113 50 143 5 8 13 28 17 44 6 20 16 30 32 31
12 1 40 16 63 34 29 24 55 35 95 40 79 11 80 25 1 18 -52 -4 -75 -11 -102 -31
-19 -15 -35 -23 -35 -17 0 5 4 11 9 13 5 2 29 35 55 75 46 71 47 72 94 75 46
4 47 4 14 12 l-32 9 27 36 c14 20 28 38 29 40 2 2 10 -2 19 -9 18 -15 45 -6
45 15 0 22 16 18 45 -11 14 -14 29 -23 33 -20 3 4 -9 20 -28 36 l-34 29 22 24
c12 13 22 28 22 34 0 6 14 20 31 31 31 19 65 18 100 -3z m2124 -445 l30 -7
-37 -7 c-37 -8 -58 -3 -58 15 0 10 20 10 65 -1z m908 3 c-7 -2 -21 -2 -30 0
-10 3 -4 5 12 5 17 0 24 -2 18 -5z m-78 -15 c-16 -6 -43 -19 -60 -30 -16 -10
-41 -23 -55 -30 -14 -6 -36 -21 -50 -32 l-25 -21 25 29 c14 15 34 32 45 37 11
6 38 21 60 34 22 14 51 24 65 24 24 -1 24 -1 -5 -11z m-655 -60 c10 -6 7 -7
-10 -2 -14 3 -32 11 -40 16 -10 6 -7 7 10 2 14 -3 32 -11 40 -16z m-1930 -34
c12 -12 12 -14 -2 -14 -9 0 -20 5 -23 11 -4 6 -17 15 -29 20 -17 8 -16 8 9 4
17 -4 37 -13 45 -21z m-100 -78 c0 -20 -19 -31 -32 -18 -6 6 -7 15 -4 21 10
16 36 13 36 -3z m129 -62 c-22 -27 -26 -14 -10 32 16 45 16 45 19 14 2 -17 -2
-38 -9 -46z m-205 -49 l6 -30 -15 25 c-8 14 -14 48 -14 75 l1 50 9 -45 c4 -25
10 -58 13 -75z m2340 -74 c-2 -3 -12 3 -22 13 -16 17 -16 18 5 5 12 -7 20 -15
17 -18z m-1682 -3 c-7 -7 -12 -8 -12 -2 0 6 3 14 7 17 3 4 9 5 12 2 2 -3 -1
-11 -7 -17z m1551 -53 c19 -8 52 -15 74 -16 107 -4 161 0 195 14 37 16 37 16
87 -21 52 -38 67 -77 39 -100 -46 -37 -268 -67 -381 -51 -65 8 -80 22 -97 81
-10 37 1 83 25 100 14 10 18 10 58 -7z m1153 -261 c50 -24 69 -81 61 -187 -7
-86 -15 -127 -26 -127 -3 0 -15 23 -25 52 -13 38 -40 75 -107 145 -49 51 -89
99 -89 107 0 26 136 33 186 10z m-841 -28 c30 -10 58 -27 69 -42 27 -38 32
-136 12 -226 -16 -72 -41 -202 -56 -286 -14 -84 -63 -108 -194 -96 -73 6 -76
8 -100 45 -14 21 -30 55 -35 76 -5 21 -21 83 -35 138 -14 55 -31 142 -37 194
-9 83 -8 99 7 133 16 36 48 62 99 80 33 12 217 1 270 -16z m-2376 -48 c-50 -9
-54 -7 -40 20 10 19 12 19 47 3 l36 -16 -43 -7z m-807 22 c22 0 31 -7 43 -36
20 -50 19 -54 -14 -54 -147 0 -272 -150 -219 -262 11 -22 17 -26 43 -21 48 9
76 28 136 90 46 48 79 102 79 131 0 3 -24 -27 -54 -66 -72 -97 -128 -139 -166
-127 -16 5 -20 15 -20 51 0 85 43 142 117 159 18 3 35 11 38 16 4 5 24 9 46 9
30 0 39 -4 40 -17 0 -15 2 -15 8 2 8 19 2 60 -14 98 -4 9 -3 17 1 17 7 0 243
-70 252 -75 1 -1 -3 -16 -9 -34 -25 -70 35 -131 128 -131 29 0 75 -5 103 -11
47 -10 55 -9 104 15 51 25 104 71 94 81 -3 3 -34 -10 -70 -29 -63 -32 -70 -34
-154 -30 -96 4 -143 11 -161 26 -20 16 -26 72 -11 108 l14 33 28 -38 c36 -47
79 -65 153 -65 56 0 143 29 143 47 0 21 84 47 155 47 71 1 75 0 109 -33 20
-20 46 -62 61 -100 23 -57 26 -79 26 -176 -1 -135 -20 -218 -62 -260 -51 -54
-35 -60 34 -14 42 27 81 70 142 155 45 61 70 69 105 32 42 -46 16 -144 -62
-233 -100 -113 -303 -150 -490 -90 -111 36 -161 69 -188 123 -20 39 -21 50
-12 101 5 31 13 67 17 81 6 24 6 24 -9 5 -34 -41 -48 -154 -25 -198 16 -30 60
-77 74 -77 6 0 20 -7 33 -15 l22 -16 -34 -29 c-46 -41 -76 -50 -166 -50 -72 0
-83 3 -139 36 -68 41 -120 108 -150 194 -50 148 -80 172 -181 146 -91 -23 -95
-22 -121 32 -28 60 -26 57 -45 41 -14 -11 -19 -10 -35 9 -26 33 -33 98 -19
186 17 105 44 151 108 187 34 19 52 24 55 16 3 -7 8 -5 12 7 6 15 15 17 44 12
20 -3 48 -6 63 -6z m2416 -10 c-10 -6 -14 -18 -11 -30 3 -11 1 -20 -5 -20 -5
0 -12 10 -15 22 -6 23 7 38 33 38 12 -1 12 -2 -2 -10z m-2381 -512 c21 -23 46
-68 62 -111 9 -23 9 -23 -76 -26 -86 -2 -193 15 -193 31 0 5 7 20 16 33 9 14
12 25 6 25 -5 0 -13 -7 -16 -16 -4 -9 -13 -14 -21 -10 -11 4 -15 -2 -15 -19 0
-28 -7 -30 -47 -13 -15 6 -32 12 -37 12 -5 1 -11 6 -13 12 -2 5 18 17 44 26
27 9 86 30 133 47 104 36 130 38 157 9z"/>
<path d="M5165 8370 c3 -5 13 -10 21 -10 8 0 14 5 14 10 0 6 -9 10 -21 10 -11
0 -17 -4 -14 -10z"/>
<path d="M4603 8385 c0 -22 2 -30 4 -17 2 12 2 30 0 40 -3 9 -5 -1 -4 -23z"/>
<path d="M4251 8340 c6 -16 15 -30 19 -30 5 0 4 14 -1 30 -6 17 -15 30 -19 30
-5 0 -4 -13 1 -30z"/>
<path d="M5129 4673 c-13 -16 -12 -17 4 -4 16 13 21 21 13 21 -2 0 -10 -8 -17
-17z"/>
<path d="M5078 4613 c7 -3 16 -2 19 1 4 3 -2 6 -13 5 -11 0 -14 -3 -6 -6z"/>
<path d="M3829 3309 c-7 -14 -8 -24 -1 -31 7 -7 16 0 26 21 14 27 15 31 2 31
-9 0 -20 -9 -27 -21z"/>
<path d="M3900 3314 c-22 -6 -45 -44 -27 -44 17 0 57 29 57 41 0 9 -4 10 -30
3z"/>
<path d="M3036 3183 c-4 -5 -33 -10 -64 -13 -31 -3 -57 -9 -57 -15 0 -14 65
-19 78 -6 6 6 19 11 28 11 10 0 21 5 24 11 8 13 1 22 -9 12z"/>
<path d="M3215 3090 c-22 -11 -53 -36 -68 -55 -41 -52 -87 -143 -87 -174 0
-21 -2 -23 -11 -11 -9 12 -10 12 -5 -3 3 -10 6 -23 6 -29 0 -5 23 -8 54 -7 33
2 61 -2 70 -10 26 -22 117 -29 148 -11 16 8 28 21 28 29 0 8 3 12 6 8 15 -14
57 56 62 102 7 74 -32 137 -103 167 -45 18 -52 18 -100 -6z m145 -115 c0 -15
-7 -26 -20 -30 -41 -13 -55 23 -18 49 26 18 38 13 38 -19z m-259 -108 c-13
-13 -14 5 -3 43 l7 25 3 -29 c2 -16 -1 -33 -7 -39z m214 -47 c16 -1 14 -4 -10
-15 -30 -14 -46 -13 -97 7 -45 17 -32 25 30 17 31 -4 66 -8 77 -9z"/>
<path d="M2950 2001 c0 -11 5 -23 10 -26 6 -3 10 3 10 14 0 11 -4 23 -10 26
-5 3 -10 -3 -10 -14z"/>
<path d="M6670 7365 c-8 -9 -8 -15 -2 -15 12 0 26 19 19 26 -2 2 -10 -2 -17
-11z"/>
<path d="M4834 3062 c-22 -16 -65 -37 -95 -45 -93 -28 -94 -28 -97 -166 l-4
-120 -41 -31 c-22 -16 -46 -30 -51 -30 -12 0 -118 -112 -112 -118 9 -9 46 20
65 52 13 21 40 44 69 57 26 12 51 29 55 36 4 7 15 13 22 13 8 0 15 6 15 13 0
8 12 19 26 26 26 12 217 29 379 34 l80 2 -2 79 c-3 73 -5 82 -37 120 -38 47
-119 91 -186 101 -40 6 -50 3 -86 -23z m-124 -147 c12 -15 5 -39 -9 -30 -12 7
-21 45 -11 45 4 0 13 -7 20 -15z m43 -122 c-7 -2 -19 -2 -25 0 -7 3 -2 5 12 5
14 0 19 -2 13 -5z"/>
<path d="M5000 2710 c0 -5 14 -10 31 -10 17 0 28 4 24 10 -3 6 -17 10 -31 10
-13 0 -24 -4 -24 -10z"/>
<path d="M4694 2671 c-18 -11 -35 -25 -40 -33 -4 -7 1 -6 12 3 23 20 63 34 84
30 8 -1 25 -12 38 -24 12 -11 22 -15 22 -9 0 18 -42 52 -64 52 -12 0 -35 -9
-52 -19z"/>
<path d="M4698 2649 c-24 -13 -23 -56 1 -69 11 -5 32 -9 48 -9 23 2 24 2 6 6
-13 2 -23 8 -23 12 0 5 10 16 23 25 22 15 22 16 3 31 -23 17 -34 18 -58 4z
m27 -29 c3 -5 2 -10 -4 -10 -5 0 -13 5 -16 10 -3 6 -2 10 4 10 5 0 13 -4 16
-10z"/>
<path d="M5141 2632 c-24 -25 -2 -65 42 -75 50 -12 64 1 44 39 -19 37 -67 57
-86 36z"/>
<path d="M4921 2561 c-19 -16 -22 -29 -21 -78 0 -32 -2 -79 -6 -105 -3 -26 -1
-54 5 -65 8 -14 9 -10 4 18 -3 23 -1 39 7 44 9 5 10 1 5 -14 -5 -16 1 -30 22
-54 30 -34 46 -36 73 -9 37 37 -3 273 -47 280 -10 2 -29 -6 -42 -17z m65 -95
c16 -17 19 -36 4 -36 -5 0 -9 5 -7 11 1 6 -8 12 -20 14 -13 1 -23 -2 -23 -7 0
-4 5 -8 10 -8 6 0 10 -4 10 -10 0 -16 -27 -11 -34 6 -10 25 -7 32 12 37 29 8
33 7 48 -7z"/>
<path d="M4540 2522 c0 -5 -18 -28 -40 -53 -52 -56 -80 -109 -80 -150 0 -46
20 -106 42 -126 26 -23 117 -29 155 -10 52 27 56 40 28 81 -15 23 -25 51 -25
74 0 24 -11 52 -30 81 -17 24 -30 57 -30 72 0 15 -4 31 -10 34 -5 3 -10 2 -10
-3z m-67 -137 c-3 -9 -8 -14 -10 -11 -3 3 -2 9 2 15 9 16 15 13 8 -4z m-11
-115 c6 -18 24 -38 42 -47 23 -13 27 -18 14 -21 -22 -4 -52 26 -66 66 -6 18
-9 32 -6 32 3 0 10 -14 16 -30z"/>
<path d="M4715 2240 c3 -5 8 -10 11 -10 2 0 4 5 4 10 0 6 -5 10 -11 10 -5 0
-7 -4 -4 -10z"/>
<path d="M4735 2210 c3 -5 8 -10 11 -10 2 0 4 5 4 10 0 6 -5 10 -11 10 -5 0
-7 -4 -4 -10z"/>
<path d="M5196 2110 c-26 -55 -52 -100 -57 -100 -5 0 -9 -7 -9 -15 0 -21 13
-19 28 5 7 12 18 17 29 14 17 -5 17 -5 1 5 -15 10 -13 19 24 96 22 47 39 88
36 90 -2 3 -26 -40 -52 -95z"/>
<path d="M4762 2174 c10 -10 20 -16 22 -13 3 3 -5 11 -17 18 -21 13 -21 12 -5
-5z"/>
<path d="M4960 2130 c0 -5 7 -10 16 -10 8 0 12 5 9 10 -3 6 -10 10 -16 10 -5
0 -9 -4 -9 -10z"/>
<path d="M4858 2123 c6 -2 18 -2 25 0 6 3 1 5 -13 5 -14 0 -19 -2 -12 -5z"/>
<path d="M4923 2115 c0 -8 4 -12 9 -9 12 7 10 -14 -3 -39 -11 -21 -10 -21 15
2 29 28 33 41 11 41 -8 0 -15 5 -15 10 0 6 -4 10 -8 10 -5 0 -9 -7 -9 -15z"/>
<path d="M5056 2082 c5 -4 25 -21 44 -37 19 -17 28 -21 20 -10 -20 26 -53 54
-64 55 -6 0 -6 -3 0 -8z"/>
<path d="M5218 2013 c7 -3 16 -2 19 1 4 3 -2 6 -13 5 -11 0 -14 -3 -6 -6z"/>
<path d="M4886 1985 c-3 -9 -6 -22 -5 -28 0 -7 5 -1 10 12 5 13 8 26 5 28 -2
2 -6 -3 -10 -12z"/>
<path d="M10080 80 l0 -80 80 0 80 0 0 80 0 80 -80 0 -80 0 0 -80z"/>
</g>
</svg>
