<?xml version="1.0" standalone="no"?>
<!DOCTYPE svg PUBLIC "-//W3C//DTD SVG 20010904//EN"
 "http://www.w3.org/TR/2001/REC-SVG-20010904/DTD/svg10.dtd">
<svg version="1.0" xmlns="http://www.w3.org/2000/svg"
 width="507.000000pt" height="91.000000pt" viewBox="0 0 507.000000 91.000000"
 preserveAspectRatio="xMidYMid meet">

<g transform="translate(0.000000,91.000000) scale(0.100000,-0.100000)"
fill="#000000" stroke="none">
<path d="M4565 860 c-33 -34 -37 -42 -25 -51 8 -5 32 -8 53 -6 34 2 38 0 33
-18 -3 -11 -18 -82 -33 -157 -14 -76 -31 -138 -37 -138 -5 0 -22 12 -37 26
-33 31 -54 27 -63 -13 -25 -102 -26 -104 -46 -93 -13 7 -20 7 -20 1 0 -6 9
-15 20 -21 23 -12 16 -40 -11 -40 -25 0 -24 -20 1 -27 25 -7 26 -28 3 -42 -12
-7 -14 -13 -7 -18 15 -11 27 -183 12 -183 -6 0 -27 17 -48 38 -30 29 -40 50
-49 97 -21 105 -26 118 -44 129 -15 9 -21 7 -33 -9 -31 -41 5 -195 59 -254 26
-29 113 -71 146 -71 18 0 22 4 16 18 -11 30 -24 180 -18 218 3 20 12 38 19 41
20 7 17 23 -3 23 -17 1 -17 2 0 14 12 9 14 16 8 21 -6 3 -11 11 -11 16 0 6 5
7 10 4 12 -8 13 7 1 21 -5 5 -2 36 7 72 l15 63 28 -27 c24 -23 37 -27 96 -29
60 -2 71 1 95 23 l27 25 16 -58 c12 -41 14 -60 6 -68 -16 -16 -14 -27 6 -27
15 0 15 -1 -2 -14 -18 -13 -18 -13 1 -24 17 -10 17 -11 2 -12 -24 0 -23 -17 2
-25 17 -5 20 -15 20 -68 0 -34 -7 -93 -15 -132 -8 -38 -15 -71 -15 -72 0 -2
16 -3 35 -3 19 0 35 5 35 10 0 6 -10 10 -21 10 -17 0 -20 4 -15 23 4 12 9 62
13 112 3 50 10 93 16 96 5 4 2 17 -7 31 -16 24 -16 26 4 31 26 7 26 27 0 27
-24 0 -28 35 -5 44 22 8 18 25 -4 19 -16 -4 -22 5 -37 56 -9 34 -21 64 -26 67
-5 4 -22 -6 -37 -20 -20 -20 -37 -26 -69 -26 -23 0 -42 2 -42 5 0 3 16 80 35
172 19 91 33 168 31 171 -2 2 -13 -1 -24 -7 -12 -6 -33 -11 -48 -11 l-28 0 29
30 c16 17 37 30 47 30 27 0 74 -26 81 -45 5 -11 21 -15 59 -15 45 0 57 4 84
31 35 34 68 33 101 -3 18 -21 18 -21 -24 -14 -24 3 -43 3 -43 -1 0 -5 11 -58
25 -118 49 -222 85 -484 85 -632 l0 -73 30 0 c17 0 30 5 30 10 0 6 -8 10 -18
10 -17 0 -20 13 -25 133 -8 148 -33 333 -71 512 -14 66 -26 123 -26 128 0 4
20 7 45 7 25 0 45 4 45 8 0 11 -50 57 -77 71 -33 17 -48 14 -84 -16 -46 -39
-103 -39 -147 -1 -49 42 -88 38 -137 -12z m-290 -583 c19 -126 57 -188 134
-219 20 -9 22 -12 9 -15 -27 -7 -87 26 -115 63 -36 47 -52 99 -53 167 0 66 15
69 25 4z"/>
<path d="M4690 710 c0 -5 7 -10 16 -10 8 0 12 5 9 10 -3 6 -10 10 -16 10 -5 0
-9 -4 -9 -10z"/>
<path d="M4832 709 c2 -6 8 -10 13 -10 5 0 11 4 13 10 2 6 -4 11 -13 11 -9 0
-15 -5 -13 -11z"/>
<path d="M1736 681 c-9 -14 5 -124 15 -114 13 14 15 116 2 120 -6 2 -14 0 -17
-6z"/>
<path d="M498 673 c22 -4 22 -5 22 -214 0 -208 0 -210 -22 -219 -17 -6 -5 -9
47 -9 52 0 64 3 48 9 -22 9 -23 15 -23 109 l0 99 35 31 c20 17 47 31 60 31 43
0 55 -33 55 -153 0 -102 -1 -108 -22 -117 -17 -6 -5 -9 47 -9 52 0 64 3 48 9
-22 9 -23 14 -23 125 0 110 -1 117 -25 140 -38 39 -97 32 -152 -18 l-23 -20 0
106 0 107 -47 -1 c-27 -1 -38 -4 -25 -6z"/>
<path d="M4750 665 c0 -8 5 -15 10 -15 6 0 10 -8 10 -17 0 -13 4 -12 14 7 7
14 11 28 9 33 -8 13 -43 7 -43 -8z"/>
<path d="M3913 573 c-7 -2 -13 -15 -13 -28 0 -17 -7 -25 -22 -28 -23 -4 -23
-4 -1 -6 21 -1 21 -6 25 -127 3 -111 5 -127 22 -140 23 -16 84 -18 106 -4 11
8 8 9 -13 4 -50 -12 -57 5 -57 142 l0 123 38 4 37 4 -37 1 c-35 2 -38 4 -38
32 0 30 -14 37 -47 23z"/>
<path d="M922 510 c-67 -41 -91 -131 -55 -207 19 -40 66 -73 103 -73 24 1 24
1 -5 14 -38 16 -55 53 -55 116 l0 50 105 0 c58 0 105 2 105 5 0 3 -6 21 -14
40 -29 68 -118 95 -184 55z m106 -7 c11 -10 23 -33 27 -50 l7 -33 -76 0 c-70
0 -76 2 -76 21 0 26 52 79 78 79 11 0 29 -8 40 -17z"/>
<path d="M1283 510 c-27 -16 -33 -17 -33 -5 0 11 -12 15 -47 14 -27 -1 -40 -3
-30 -6 15 -4 17 -19 17 -138 0 -131 -1 -134 -22 -138 -13 -2 11 -5 52 -5 54
-1 69 2 53 8 -22 9 -23 15 -23 118 0 102 1 110 25 132 21 19 27 21 40 10 9 -7
14 -19 11 -26 -6 -15 18 -26 39 -18 21 9 19 51 -4 64 -28 14 -42 13 -78 -10z"/>
<path d="M1490 512 c-51 -27 -84 -97 -75 -158 9 -61 56 -113 105 -118 19 -2
28 -2 19 1 -37 9 -61 50 -66 112 l-6 61 107 0 c117 0 123 4 89 61 -33 56 -110
74 -173 41z m103 -5 c10 -6 20 -29 24 -50 l6 -37 -76 0 -76 0 10 33 c16 57 72
84 112 54z"/>
<path d="M1869 516 c-37 -21 -52 -61 -39 -102 10 -30 19 -35 91 -59 80 -27
105 -48 92 -80 -3 -10 -20 -23 -37 -31 -25 -11 -27 -13 -9 -14 25 0 73 53 73
81 0 26 -19 61 -39 74 -9 5 -45 19 -81 30 -56 18 -65 24 -68 47 -4 32 29 58
73 58 43 0 57 -13 53 -46 -2 -23 1 -30 19 -32 32 -5 41 34 15 61 -26 26 -107
33 -143 13z"/>
<path d="M2346 505 c-34 -23 -36 -23 -36 -5 0 18 -6 20 -52 19 -29 -1 -43 -4
-30 -6 21 -4 22 -8 22 -134 0 -125 -1 -130 -22 -139 -17 -6 -4 -9 47 -8 39 0
62 2 53 5 -16 4 -18 18 -18 118 l0 114 29 20 c37 27 77 27 91 2 5 -11 10 -70
10 -131 0 -105 -1 -111 -22 -120 -17 -6 -5 -9 47 -9 52 0 64 3 48 9 -22 9 -23
15 -23 110 0 99 1 102 29 131 30 29 64 37 91 19 12 -7 16 -36 18 -130 4 -118
3 -120 -20 -129 -17 -8 -6 -10 47 -10 52 0 64 3 48 9 -22 9 -23 14 -23 125 0
111 -1 117 -26 142 -22 21 -32 25 -66 20 -25 -3 -51 -15 -65 -30 l-25 -24 -28
29 c-36 35 -75 36 -124 3z"/>
<path d="M3340 523 c-21 -8 -50 -34 -50 -45 0 -6 14 2 31 16 32 27 40 29 77
20 36 -10 52 -54 52 -142 0 -94 -20 -132 -71 -132 -71 0 -102 48 -99 154 5
131 7 126 -47 125 -27 -1 -40 -3 -30 -6 15 -4 17 -23 17 -218 0 -195 -2 -214
-17 -218 -10 -3 16 -5 57 -5 45 0 65 3 50 7 -24 7 -25 10 -28 106 l-3 99 29
-27 c55 -52 149 -31 187 43 21 40 19 118 -3 160 -28 53 -99 82 -152 63z"/>
<path d="M3641 512 c-56 -28 -76 -64 -76 -135 0 -97 49 -147 143 -147 40 0 57
6 81 26 17 14 31 33 31 42 -1 14 -3 13 -12 -3 -25 -47 -90 -69 -143 -49 -25
10 -45 59 -45 114 l0 50 105 0 c117 0 121 3 82 61 -40 59 -101 75 -166 41z
m98 -9 c11 -10 24 -33 27 -50 l7 -33 -78 0 -77 0 6 28 c8 32 49 72 75 72 11 0
28 -8 40 -17z"/>
<path d="M15 511 c14 -6 39 -53 79 -150 33 -77 62 -141 67 -141 4 0 22 41 40
90 17 50 35 90 38 90 4 0 23 -39 43 -87 19 -48 39 -88 44 -90 5 -2 32 58 59
133 30 82 58 142 70 150 18 13 15 14 -30 13 -40 0 -46 -2 -27 -9 12 -5 22 -14
22 -19 0 -13 -61 -174 -70 -184 -6 -7 -28 40 -87 190 -2 6 6 13 19 16 13 2 -8
4 -47 4 -38 1 -63 -1 -54 -4 9 -2 24 -22 34 -43 17 -38 17 -41 -6 -104 -12
-37 -25 -66 -28 -66 -3 0 -24 45 -45 101 -33 84 -37 102 -25 110 9 6 -9 9 -51
8 -44 0 -58 -3 -45 -8z"/>
<path d="M2746 513 c15 -3 37 -39 86 -145 l66 -140 -19 -56 c-22 -65 -35 -82
-60 -82 -19 0 -23 9 -19 43 1 15 -4 18 -27 15 -31 -3 -44 -38 -23 -64 16 -19
79 -18 101 2 10 9 48 105 86 214 50 146 73 202 88 209 16 7 8 10 -35 10 -46 0
-51 -2 -30 -10 13 -6 26 -12 28 -13 3 -4 -56 -177 -63 -185 -4 -3 -95 183 -95
194 0 2 10 6 23 8 12 2 -12 4 -53 4 -41 0 -66 -2 -54 -4z"/>
<path d="M4540 360 c0 -5 5 -10 10 -10 6 0 10 5 10 10 0 6 -4 10 -10 10 -5 0
-10 -4 -10 -10z"/>
<path d="M4645 360 c3 -5 10 -10 16 -10 5 0 9 5 9 10 0 6 -7 10 -16 10 -8 0
-12 -4 -9 -10z"/>
<path d="M1832 318 c-34 -34 5 -89 63 -87 28 0 28 1 8 9 -18 7 -23 17 -23 44
0 22 -6 36 -16 40 -20 8 -18 8 -32 -6z"/>
<path d="M4590 310 c0 -11 4 -20 9 -20 5 0 11 9 14 20 3 13 0 20 -9 20 -8 0
-14 -9 -14 -20z"/>
<path d="M1082 280 c-13 -17 -38 -34 -55 -39 l-32 -9 28 -1 c29 -1 87 45 87
68 0 15 -2 14 -28 -19z"/>
<path d="M1652 280 c-12 -16 -37 -34 -55 -39 -17 -5 -24 -10 -14 -10 29 -2 72
26 85 53 15 34 11 33 -16 -4z"/>
</g>
</svg>
