<?xml version="1.0" standalone="no"?>
<!DOCTYPE svg PUBLIC "-//W3C//DTD SVG 20010904//EN"
 "http://www.w3.org/TR/2001/REC-SVG-20010904/DTD/svg10.dtd">
<svg version="1.0" xmlns="http://www.w3.org/2000/svg"
 width="116.000000pt" height="111.000000pt" viewBox="0 0 116.000000 111.000000"
 preserveAspectRatio="xMidYMid meet">

<g transform="translate(0.000000,111.000000) scale(0.100000,-0.100000)"
fill="#000000" stroke="none">
<path d="M485 970 c-33 -34 -37 -42 -25 -51 8 -5 32 -8 53 -6 34 2 38 0 33
-18 -3 -11 -18 -82 -33 -157 -14 -76 -31 -138 -37 -138 -5 0 -22 12 -37 26
-33 31 -54 27 -63 -13 -25 -102 -26 -104 -46 -93 -13 7 -20 7 -20 1 0 -6 9
-15 20 -21 23 -12 16 -40 -11 -40 -25 0 -24 -20 1 -27 25 -7 26 -28 3 -42 -12
-7 -14 -13 -7 -18 15 -11 27 -183 12 -183 -6 0 -27 17 -48 38 -30 29 -40 50
-49 97 -21 105 -26 118 -44 129 -15 9 -21 7 -33 -9 -31 -41 5 -195 59 -254 26
-29 113 -71 146 -71 18 0 22 4 16 18 -11 30 -24 180 -18 218 3 20 12 38 19 41
20 7 17 23 -3 23 -17 1 -17 2 0 14 12 9 14 16 8 21 -6 3 -11 11 -11 16 0 6 5
7 10 4 12 -8 13 7 1 21 -5 5 -2 36 7 72 l15 63 28 -27 c24 -23 37 -27 96 -29
60 -2 71 1 95 23 l27 25 16 -58 c12 -41 14 -60 6 -68 -16 -16 -14 -27 6 -27
15 0 15 -1 -2 -14 -18 -13 -18 -13 1 -24 17 -10 17 -11 2 -12 -24 0 -23 -17 2
-25 17 -5 20 -15 20 -68 0 -34 -7 -93 -15 -132 -8 -38 -15 -71 -15 -72 0 -2
16 -3 35 -3 19 0 35 5 35 10 0 6 -10 10 -21 10 -17 0 -20 4 -15 23 4 12 9 62
13 112 3 50 10 93 16 96 5 4 2 17 -7 31 -16 24 -16 26 4 31 26 7 26 27 0 27
-24 0 -28 35 -5 44 22 8 18 25 -4 19 -16 -4 -22 5 -37 56 -9 34 -21 64 -26 67
-5 4 -22 -6 -37 -20 -20 -20 -37 -26 -69 -26 -23 0 -42 2 -42 5 0 3 16 80 35
172 19 91 33 168 31 171 -2 2 -13 -1 -24 -7 -12 -6 -33 -11 -48 -11 l-28 0 29
30 c16 17 37 30 47 30 27 0 74 -26 81 -45 5 -11 21 -15 59 -15 45 0 57 4 84
31 35 34 68 33 101 -3 18 -21 18 -21 -24 -14 -24 3 -43 3 -43 -1 0 -5 11 -58
25 -118 49 -222 85 -484 85 -632 l0 -73 30 0 c17 0 30 5 30 10 0 6 -8 10 -18
10 -17 0 -20 13 -25 133 -8 148 -33 333 -71 512 -14 66 -26 123 -26 128 0 4
20 7 45 7 25 0 45 4 45 8 0 11 -50 57 -77 71 -33 17 -48 14 -84 -16 -46 -39
-103 -39 -147 -1 -49 42 -88 38 -137 -12z m-290 -583 c19 -126 57 -188 134
-219 20 -9 22 -12 9 -15 -27 -7 -87 26 -115 63 -36 47 -52 99 -53 167 0 66 15
69 25 4z"/>
<path d="M610 820 c0 -5 7 -10 16 -10 8 0 12 5 9 10 -3 6 -10 10 -16 10 -5 0
-9 -4 -9 -10z"/>
<path d="M752 819 c2 -6 8 -10 13 -10 5 0 11 4 13 10 2 6 -4 11 -13 11 -9 0
-15 -5 -13 -11z"/>
<path d="M670 775 c0 -8 5 -15 10 -15 6 0 10 -8 10 -17 0 -13 4 -12 14 7 7 14
11 28 9 33 -8 13 -43 7 -43 -8z"/>
<path d="M460 470 c0 -5 5 -10 10 -10 6 0 10 5 10 10 0 6 -4 10 -10 10 -5 0
-10 -4 -10 -10z"/>
<path d="M565 470 c3 -5 10 -10 16 -10 5 0 9 5 9 10 0 6 -7 10 -16 10 -8 0
-12 -4 -9 -10z"/>
<path d="M510 420 c0 -11 4 -20 9 -20 5 0 11 9 14 20 3 13 0 20 -9 20 -8 0
-14 -9 -14 -20z"/>
</g>
</svg>
